<?xml version="1.0" standalone="no"?>
<!DOCTYPE svg PUBLIC "-//W3C//DTD SVG 20010904//EN"
 "http://www.w3.org/TR/2001/REC-SVG-20010904/DTD/svg10.dtd">
<svg version="1.0" xmlns="http://www.w3.org/2000/svg"
 width="512.000000pt" height="512.000000pt" viewBox="0 0 512.000000 512.000000"
 preserveAspectRatio="xMidYMid meet">

<g transform="translate(0.000000,512.000000) scale(0.100000,-0.100000)"
fill="#000000" stroke="none">
<path d="M1183 4461 c-72 -24 -127 -65 -163 -120 -64 -96 -60 15 -58 -1801 l3
-1655 26 -56 c33 -71 87 -125 158 -158 l56 -26 1355 0 1355 0 56 26 c71 33
125 87 158 158 l26 56 0 1675 0 1675 -26 56 c-33 71 -87 125 -158 158 l-56 26
-1340 2 c-1269 2 -1343 2 -1392 -16z m823 -327 c68 -51 69 -53 69 -294 0 -241
-1 -243 -69 -294 -26 -20 -41 -21 -246 -21 -205 0 -220 1 -246 21 -67 49 -69
57 -72 267 -4 221 -1 245 35 288 47 55 67 59 295 56 191 -2 209 -4 234 -23z
m800 0 c68 -51 69 -53 69 -294 0 -241 -1 -243 -69 -294 -26 -20 -41 -21 -246
-21 -205 0 -220 1 -246 21 -67 49 -69 57 -72 267 -4 221 -1 245 35 288 47 55
67 59 295 56 191 -2 209 -4 234 -23z m800 0 c68 -51 69 -53 69 -294 0 -241 -1
-243 -69 -294 -26 -20 -41 -21 -246 -21 -205 0 -220 1 -246 21 -67 49 -69 57
-72 267 -4 221 -1 245 35 288 47 55 67 59 295 56 191 -2 209 -4 234 -23z
m-1600 -800 c68 -51 69 -53 69 -294 0 -241 -1 -243 -69 -294 -26 -20 -41 -21
-246 -21 -205 0 -220 1 -246 21 -67 49 -69 57 -72 267 -4 221 -1 245 35 288
47 55 67 59 295 56 191 -2 209 -4 234 -23z m800 0 c68 -51 69 -53 69 -294 0
-241 -1 -243 -69 -294 -26 -20 -41 -21 -246 -21 -205 0 -220 1 -246 21 -67 49
-69 57 -72 267 -4 221 -1 245 35 288 47 55 67 59 295 56 191 -2 209 -4 234
-23z m800 0 c68 -51 69 -53 69 -294 0 -241 -1 -243 -69 -294 -26 -20 -41 -21
-246 -21 -205 0 -220 1 -246 21 -67 49 -69 57 -72 267 -4 221 -1 245 35 288
47 55 67 59 295 56 191 -2 209 -4 234 -23z m-1600 -800 c68 -51 69 -53 69
-294 0 -241 -1 -243 -69 -294 -26 -20 -41 -21 -246 -21 -205 0 -220 1 -246 21
-67 49 -69 57 -72 267 -4 221 -1 245 35 288 47 55 67 59 295 56 191 -2 209 -4
234 -23z m800 0 c68 -51 69 -53 69 -294 0 -241 -1 -243 -69 -294 -26 -20 -41
-21 -246 -21 -205 0 -220 1 -246 21 -67 49 -69 57 -72 267 -4 221 -1 245 35
288 47 55 67 59 295 56 191 -2 209 -4 234 -23z m800 0 c68 -51 69 -53 69 -294
0 -241 -1 -243 -69 -294 -26 -20 -41 -21 -246 -21 -205 0 -220 1 -246 21 -67
49 -69 57 -72 267 -4 221 -1 245 35 288 47 55 67 59 295 56 191 -2 209 -4 234
-23z m-800 -800 c68 -51 69 -53 69 -294 0 -241 -1 -243 -69 -294 -26 -20 -41
-21 -246 -21 -205 0 -220 1 -246 21 -67 49 -69 57 -72 267 -4 221 -1 245 35
288 47 55 67 59 295 56 191 -2 209 -4 234 -23z"/>
</g>
</svg>
